<svg width="20" height="20" viewBox="0 0 20 20" fill="none" xmlns="http://www.w3.org/2000/svg">
<path d="M10 2.5C14.125 2.5 17.5 5.875 17.5 10C17.5 14.125 14.125 17.5 10 17.5C5.875 17.5 2.5 14.125 2.5 10C2.5 5.875 5.875 2.5 10 2.5ZM10 1.25C5.1875 1.25 1.25 5.1875 1.25 10C1.25 14.8125 5.1875 18.75 10 18.75C14.8125 18.75 18.75 14.8125 18.75 10C18.75 5.1875 14.8125 1.25 10 1.25Z" fill="white"/>
<path d="M10 1.25C7.68807 1.27805 5.47873 2.20893 3.84383 3.84383C2.20893 5.47873 1.27805 7.68807 1.25 10C1.27805 12.3119 2.20893 14.5213 3.84383 16.1562C5.47873 17.7911 7.68807 18.7219 10 18.75C12.3119 18.7219 14.5213 17.7911 16.1562 16.1562C17.7911 14.5213 18.7219 12.3119 18.75 10C18.7219 7.68807 17.7911 5.47873 16.1562 3.84383C14.5213 2.20893 12.3119 1.27805 10 1.25ZM15 10.625H10.625V15H9.375V10.625H5V9.375H9.375V5H10.625V9.375H15V10.625Z" fill="none"/>
<path d="M15 9.375H10.625V5H9.375V9.375H5V10.625H9.375V15H10.625V10.625H15V9.375Z" fill="white"/>
</svg>
